<svg xmlns="http://www.w3.org/2000/svg" viewBox="0 0 320 320" width="320" height="320" role="img">
  <defs>
    <filter id="soft" x="-35%" y="-35%" width="170%" height="170%">
      <feGaussianBlur stdDeviation="8" result="b"/><feMerge><feMergeNode in="b"/><feMergeNode in="SourceGraphic"/></feMerge>
    </filter>
<radialGradient id="kbg" cx="50%" cy="34%" r="78%"><stop offset="0%" stop-color="#5f121d"/><stop offset="100%" stop-color="#11040a"/></radialGradient>
   <linearGradient id="gold" x1="0%" y1="0%" x2="0%" y2="100%"><stop offset="0%" stop-color="#ffe490"/><stop offset="52%" stop-color="#f5b427"/><stop offset="100%" stop-color="#bd7a08"/></linearGradient>
  </defs>
  <rect width="320" height="320" rx="16" fill="url(#kbg)"/>
<g transform="translate(160 116) scale(0.7611) translate(-160 -147)">
    <g filter="url(#soft)">
      <path d="M92 40 L120 88 L160 34 L200 88 L228 40 L222 116 L98 116 Z" fill="url(#gold)"/>
      <circle cx="92" cy="40" r="8" fill="#fff3cf"/><circle cx="160" cy="34" r="9" fill="#fff3cf"/><circle cx="228" cy="40" r="8" fill="#fff3cf"/>
      <rect x="96" y="122" width="128" height="13" rx="6" fill="url(#gold)"/>
    </g>
    <path d="M24 226 C64 202 96 194 138 196 L138 240 C98 240 62 248 26 260 Z" fill="#e0955c"/>
    <path d="M296 226 C256 202 224 194 182 196 L182 240 C222 240 258 248 294 260 Z" fill="#bf7038"/>
    <rect x="130" y="176" width="60" height="84" rx="19" fill="#f6b183"/>
    <path d="M131 198 h58 M131 218 h58 M131 238 h58" stroke="#b8672f" stroke-width="5" stroke-linecap="round"/></g><text x="160" y="248" text-anchor="middle" font-family="Impact,'Arial Black','Haettenschweiler',sans-serif" font-size="33" fill="url(#gold)" >KING'S MOVE</text><rect x="118" y="260" width="84" height="7" rx="3.5" fill="#f5b427"/><rect x="134" y="272" width="52" height="7" rx="3.5" fill="#f5b427"/>
</svg>