<svg xmlns="http://www.w3.org/2000/svg" viewBox="0 0 320 320" width="320" height="320" role="img">
  <defs>
    <filter id="soft" x="-35%" y="-35%" width="170%" height="170%">
      <feGaussianBlur stdDeviation="8" result="b"/><feMerge><feMergeNode in="b"/><feMergeNode in="SourceGraphic"/></feMerge>
    </filter>
<radialGradient id="vbg" cx="50%" cy="38%" r="76%"><stop offset="0%" stop-color="#55e483"/><stop offset="55%" stop-color="#16a94b"/><stop offset="100%" stop-color="#05602a"/></radialGradient>
  </defs>
  <rect width="320" height="320" rx="16" fill="url(#vbg)"/>
<g transform="translate(160 116) scale(0.8133) translate(0 0)">
    <circle cx="0" cy="0" r="96" fill="none" stroke="#ffffff" stroke-width="4" stroke-dasharray="10 14" opacity=".55"/>
    <g transform="rotate(-10)" filter="url(#soft)">
      <path d="M-102 4 L44 -12 L94 0 L44 14 L-102 16 Z" fill="#ffffff"/>
      <rect x="-56" y="-50" width="120" height="11" rx="5.5" fill="#ffffff"/>
      <rect x="-56" y="40" width="120" height="11" rx="5.5" fill="#e6ede8"/>
      <path d="M-18 -39 L-10 5 M30 -39 L22 5" stroke="#cfe0d4" stroke-width="7"/>
      <path d="M-102 4 L-132 -18 L-124 14 Z" fill="#ffffff"/>
      <circle cx="44" cy="1" r="10" fill="#0d6b2f"/>
      <ellipse cx="92" cy="1" rx="6" ry="32" fill="#f2f7f3" opacity=".9"/>
    </g></g><text x="160" y="246" text-anchor="middle" font-family="Impact,'Arial Black','Haettenschweiler',sans-serif" font-size="37" fill="#ffffff" stroke='#075c27' stroke-width='6' paint-order='stroke'>LIGIVIATOR</text><rect x="116" y="260" width="88" height="7" rx="3.5" fill="#ffffff"/><rect x="132" y="272" width="56" height="7" rx="3.5" fill="#ffffff"/>
</svg>